# File produced by Open Asset Import Library (http://www.assimp.sf.net)
# (assimp v3.1.187496374)

mtllib Play-Doh-Triangle.obj.mtl

# 24 vertex positions
v  15.95 0 0.00576652
v  -7.97999 0 13.8102
v  15.95 1.28 0.00576652
v  -7.97999 1.28 13.8102
v  -7.97001 0 -13.816
v  -7.97001 1.28 -13.816
v  -9.54402 1.28 -16.5445
v  -9.55598 1.28 16.5376
v  19.1 1.28 0.00690537
v  19.1 15 0.00690537
v  -9.55598 15 16.5376
v  -9.54402 15 -16.5445
v  -12.0325 0 20.8236
v  24.05 0 0.00869498
v  -12.0325 1.28 20.8236
v  24.05 1.28 0.00869498
v  -12.0175 0 -20.8323
v  -12.0175 1.28 -20.8323
v  -10.4565 1.28 18.0962
v  -10.4435 1.28 -18.1037
v  20.9 1.28 0.00755614
v  -10.4435 15 -18.1037
v  -10.4565 15 18.0962
v  20.9 15 0.00755614

# 0 UV coordinates

# 8 vertex normals
vn -0.499687 0 -0.866206
vn -0.500313 0 0.865845
vn 1 0 0.000361538
vn 0 1 0
vn 0.499687 0 0.866206
vn -1 0 -0.000361538
vn 0.500313 0 -0.865845
vn 0 -1 0

# Mesh '<STL_BINARY>' with 48 faces
g <STL_BINARY>
usemtl DefaultMaterial
f  1//1 2//1 3//1
f  3//1 2//1 4//1
f  5//2 1//2 6//2
f  6//2 1//2 3//2
f  2//3 5//3 4//3
f  4//3 5//3 6//3
f  6//4 7//4 4//4
f  7//4 6//4 3//4
f  4//4 7//4 8//4
f  3//4 9//4 7//4
f  4//4 8//4 3//4
f  3//4 8//4 9//4
f  9//1 8//1 10//1
f  10//1 8//1 11//1
f  8//3 7//3 11//3
f  11//3 7//3 12//3
f  13//5 14//5 15//5
f  15//5 14//5 16//5
f  17//6 13//6 18//6
f  18//6 13//6 15//6
f  14//7 17//7 16//7
f  16//7 17//7 18//7
f  19//4 20//4 18//4
f  15//4 21//4 19//4
f  15//4 19//4 18//4
f  18//4 20//4 21//4
f  18//4 21//4 16//4
f  16//4 21//4 15//4
f  20//6 19//6 22//6
f  22//6 19//6 23//6
f  19//5 21//5 23//5
f  23//5 21//5 24//5
f  7//2 9//2 12//2
f  12//2 9//2 10//2
f  21//7 20//7 24//7
f  24//7 20//7 22//7
f  11//4 12//4 22//4
f  23//4 10//4 11//4
f  23//4 11//4 22//4
f  22//4 12//4 10//4
f  22//4 10//4 24//4
f  24//4 10//4 23//4
f  1//8 5//8 17//8
f  13//8 2//8 1//8
f  13//8 1//8 14//8
f  14//8 1//8 17//8
f  17//8 5//8 2//8
f  17//8 2//8 13//8

